<?xml version="1.0" encoding="UTF-8"?>
<svg id="Vrstva_2" data-name="Vrstva 2" xmlns="http://www.w3.org/2000/svg" xmlns:xlink="http://www.w3.org/1999/xlink" viewBox="0 0 377.52 650.3">
  <defs>
    <style>
      .cls-1 {
        isolation: isolate;
      }

      .cls-2 {
        fill: #009fe3;
      }

      .cls-3 {
        fill: #3c3c3b;
      }

      .cls-4 {
        clip-path: url(#clippath);
      }

      .cls-5 {
        fill: none;
      }
    </style>
    <clipPath id="clippath">
      <polygon class="cls-5" points="1.23 650.3 0 217.25 376.29 0 377.52 433.04 1.23 650.3"/>
    </clipPath>
  </defs>
  <g id="Artboard_5" data-name="Artboard 5">
    <g>
      <g class="cls-1">
        <g class="cls-4">
          <path class="cls-2" d="M184.05,538.01c-5.8,3.35-11.67,6.42-17.61,9.19-71.34,34.22-135.61,11.26-156.08-55.97-21.84-65.96,1.88-170.7,57.48-254.46,33.94-51.83,74.1-89.97,113.71-112.84,75.54-43.61,149.09-31.69,173.78,46.67,36.35,113.48-52.35,298.75-171.28,367.41m4.81-429.79C119.07,148.51,51.95,232.99,20.47,325.12-1.06,386.8-5.41,448.09,9,492.49c13.93,44.85,46.37,71.94,88.34,74.58,28.5,2.25,60.25-7.05,91.85-25.3,53.67-30.99,106.9-87.78,142.86-157.49,52.04-99.06,59.87-205.7,19.62-261.54-24.46-34.93-66.34-47.92-113.79-35.1-16.21,4.12-32.69,11.13-49.03,20.56"/>
        </g>
      </g>
      <g>
        <path class="cls-3" d="M25.87,161.26l66.43,66.42V494.52c-7.06-1.88-34.16-9.99-52.09-37.16-13.75-20.84-14.7-41.68-14.63-50.03,.1-82.02,.2-164.05,.29-246.07Z"/>
        <path class="cls-3" d="M260.11,302.65c-39.56,39.56-79.15,79.15-79.15,79.15l-79.15-79.15v-65.47l79.15,79.15s39.59-39.59,79.15-79.15v65.47Z"/>
        <path class="cls-3" d="M335.9,161.26l-66.43,66.42V494.52c7.06-1.88,34.16-9.99,52.09-37.16,13.75-20.84,14.7-41.68,14.63-50.03-.1-82.02-.2-164.05-.29-246.07Z"/>
      </g>
    </g>
  </g>
</svg>