<?xml version="1.0" encoding="UTF-8"?>
<svg id="b" data-name="Vrstva 2" xmlns="http://www.w3.org/2000/svg" xmlns:xlink="http://www.w3.org/1999/xlink" viewBox="0 0 377.56 650.41">
  <defs>
    <style>
      .e {
        fill: #fff;
      }

      .f {
        isolation: isolate;
      }

      .g {
        clip-path: url(#d);
      }

      .h {
        fill: #009fe3;
      }

      .i {
        fill: none;
      }
    </style>
    <clipPath id="d">
      <polygon class="i" points="1.23 650.41 0 217.28 376.33 0 377.56 433.14 1.23 650.41"/>
    </clipPath>
  </defs>
  <g id="c" data-name="Artboard 4">
    <g>
      <g class="f">
        <g class="g">
          <path class="h" d="M184.06,538.13c-5.8,3.35-11.67,6.42-17.6,9.19-71.35,34.23-135.62,11.25-156.1-56-21.85-65.97,1.88-170.73,57.48-254.51,33.95-51.85,74.11-89.99,113.73-112.86,75.55-43.62,149.11-31.69,173.8,46.69,36.36,113.5-52.34,298.81-171.31,367.49m4.82-429.9C119.07,148.53,51.95,233.03,20.46,325.18-1.07,386.87-5.41,448.16,9.01,492.57c13.93,44.86,46.37,71.96,88.34,74.61,28.5,2.25,60.25-7.05,91.86-25.3,53.69-31,106.92-87.8,142.88-157.53,52.04-99.07,59.87-205.73,19.62-261.58-24.47-34.94-66.35-47.94-113.8-35.11-16.21,4.12-32.7,11.13-49.04,20.57"/>
        </g>
      </g>
      <g>
        <path class="e" d="M25.87,161.28l66.43,66.43V494.61c-7.06-1.88-34.17-10-52.09-37.17-13.76-20.85-14.71-41.69-14.63-50.04,.1-82.04,.2-164.08,.29-246.12Z"/>
        <path class="e" d="M260.14,302.7c-39.56,39.56-79.16,79.16-79.16,79.16l-79.16-79.16v-65.48l79.16,79.16s39.6-39.6,79.16-79.16v65.48Z"/>
        <path class="e" d="M335.94,161.28l-66.43,66.43V494.61c7.06-1.88,34.17-10,52.09-37.17,13.76-20.85,14.71-41.69,14.63-50.04-.1-82.04-.2-164.08-.29-246.12Z"/>
      </g>
    </g>
  </g>
</svg>