<?xml version="1.0" standalone="no"?>
<!DOCTYPE svg PUBLIC "-//W3C//DTD SVG 20010904//EN"
 "http://www.w3.org/TR/2001/REC-SVG-20010904/DTD/svg10.dtd">
<svg version="1.0" xmlns="http://www.w3.org/2000/svg"
 width="1300.000000pt" height="1300.000000pt" viewBox="0 0 1300.000000 1300.000000"
 preserveAspectRatio="xMidYMid meet">
<metadata>
Created by potrace 1.14, written by Peter Selinger 2001-2017
</metadata>
<g transform="translate(0.000000,1300.000000) scale(0.100000,-0.100000)"
fill="#000000" stroke="none">
<path d="M8088 11344 c-2 -1 -46 -5 -97 -8 -51 -4 -105 -8 -120 -11 -14 -2
-55 -9 -91 -15 -106 -17 -121 -20 -225 -46 -120 -31 -130 -33 -153 -38 -30 -7
-292 -96 -310 -106 -9 -5 -53 -23 -97 -40 -78 -31 -359 -168 -422 -206 -17
-10 -62 -36 -100 -58 -58 -33 -327 -205 -358 -229 -5 -4 -59 -44 -120 -89
-113 -83 -286 -218 -295 -229 -3 -3 -34 -30 -70 -60 -35 -29 -72 -60 -81 -69
-9 -8 -56 -51 -104 -95 -162 -148 -350 -339 -570 -579 -6 -6 -48 -56 -95 -111
-46 -55 -87 -102 -90 -105 -3 -3 -39 -48 -80 -100 -41 -52 -77 -97 -80 -100
-9 -9 -206 -274 -221 -298 -13 -21 -29 -7 -536 500 -288 288 -523 516 -524
508 0 -8 -2 -683 -4 -1500 -2 -1394 -3 -1487 -20 -1525 -15 -35 -132 -363
-139 -390 -2 -5 -11 -37 -21 -70 -10 -33 -20 -64 -21 -70 -2 -5 -19 -64 -39
-130 -19 -66 -37 -129 -39 -140 -3 -11 -14 -56 -26 -100 -11 -44 -23 -93 -26
-110 -3 -16 -7 -37 -10 -45 -3 -8 -8 -28 -11 -45 -2 -16 -8 -43 -13 -60 -5
-16 -11 -43 -13 -60 -3 -16 -14 -79 -26 -140 -11 -60 -23 -130 -27 -155 -3
-25 -8 -54 -9 -65 -10 -63 -19 -134 -19 -162 -1 -18 -3 -33 -6 -33 -3 0 -6
-15 -6 -32 -1 -18 -4 -62 -8 -98 -25 -247 -27 -780 -2 -950 2 -19 7 -62 11
-95 3 -33 8 -74 11 -90 3 -17 8 -46 10 -65 6 -40 8 -53 17 -95 4 -16 9 -43 12
-60 2 -16 9 -45 15 -64 5 -19 7 -37 5 -42 -3 -4 -1 -10 4 -13 5 -3 12 -21 15
-40 11 -56 95 -312 125 -379 15 -34 28 -64 28 -67 1 -9 98 -205 117 -235 80
-126 140 -216 157 -231 10 -9 19 -21 19 -25 0 -25 305 -329 330 -329 4 0 10
-4 12 -8 4 -11 145 -105 208 -140 71 -40 187 -96 220 -107 3 -1 12 -4 20 -8
70 -28 241 -79 275 -82 11 -1 34 -5 50 -8 143 -34 386 -47 595 -33 105 7 344
43 380 56 3 1 8 2 11 2 3 -1 26 5 52 13 25 7 48 11 51 8 3 -4 6 -2 6 3 0 5 9
10 21 11 11 1 66 16 122 34 56 18 104 33 107 34 3 1 12 4 20 8 8 3 38 13 65
23 28 9 74 28 103 41 29 12 54 23 57 23 4 0 148 66 235 108 99 48 449 247 460
262 3 4 21 15 40 25 19 10 37 21 40 24 3 3 55 39 115 80 61 41 112 77 115 81
3 3 21 17 40 30 19 13 37 27 40 30 3 3 26 21 53 40 26 19 58 44 70 55 13 11
43 36 67 55 40 32 170 141 196 165 155 140 225 207 359 340 88 88 183 186 211
218 28 31 54 57 57 57 3 0 6 -71 6 -157 0 -87 0 -172 0 -189 l1 -32 102 35
c135 45 247 96 336 151 29 17 55 32 57 32 6 0 97 63 150 104 22 17 49 38 59
46 26 20 207 200 226 226 107 138 183 260 237 379 33 73 54 123 59 140 1 6 12
39 23 75 31 92 54 196 67 300 14 105 16 167 18 510 l2 375 61 125 c115 236
255 573 339 815 19 55 37 107 41 115 3 8 7 20 9 25 1 6 19 62 39 125 51 158
116 387 130 455 10 48 10 49 18 63 5 6 6 12 3 12 -2 0 0 15 5 33 5 17 12 44
14 59 3 16 12 56 20 90 15 67 23 107 30 148 2 14 7 36 10 50 3 14 7 39 9 55 3
17 11 73 20 125 16 103 25 172 32 235 2 22 6 58 9 80 15 139 19 269 19 575 -1
303 -5 415 -19 510 -2 14 -7 52 -10 85 -4 33 -11 78 -15 100 -5 22 -12 60 -15
85 -4 24 -8 48 -11 51 -2 4 -6 24 -10 45 -3 22 -17 82 -31 134 -13 52 -26 102
-28 110 -15 66 -106 302 -163 420 -73 152 -218 377 -317 490 -60 69 -200 202
-259 247 -34 25 -62 50 -64 55 -2 4 -8 8 -13 8 -4 0 -39 20 -76 44 -178 115
-445 220 -638 252 -16 2 -43 7 -60 10 -51 9 -87 13 -160 19 -83 7 -283 14
-287 9z m92 -329 c41 -3 89 -7 105 -10 17 -2 50 -7 75 -10 25 -3 63 -10 85
-16 22 -6 47 -13 55 -15 8 -2 33 -8 56 -13 132 -33 346 -132 488 -226 126 -84
284 -227 376 -341 58 -72 110 -144 110 -153 0 -6 5 -11 10 -11 6 0 10 -7 10
-15 0 -8 5 -15 10 -15 6 0 10 -7 10 -15 0 -8 5 -15 10 -15 6 0 10 -6 10 -14 0
-7 7 -19 15 -26 8 -7 13 -16 10 -20 -3 -5 -1 -11 5 -15 16 -10 148 -285 156
-325 0 -3 6 -18 13 -35 26 -62 102 -313 117 -388 2 -12 6 -31 8 -42 16 -72 28
-135 32 -164 2 -19 6 -46 9 -60 10 -60 14 -89 21 -151 3 -36 8 -78 10 -95 5
-42 15 -300 14 -360 -2 -165 -13 -392 -25 -515 -4 -36 -8 -83 -10 -105 -2 -22
-4 -40 -5 -40 -1 0 -3 -11 -5 -25 -4 -45 -16 -125 -20 -140 -2 -8 -6 -37 -10
-65 -3 -27 -8 -59 -10 -70 -3 -11 -7 -32 -9 -48 -3 -15 -7 -35 -10 -45 -3 -9
-7 -33 -10 -52 -2 -19 -14 -75 -26 -125 -12 -49 -24 -101 -26 -115 -3 -14 -19
-76 -35 -138 -17 -62 -32 -120 -34 -130 -2 -9 -16 -55 -30 -102 -14 -47 -28
-92 -30 -100 -2 -8 -9 -28 -15 -45 -6 -16 -13 -37 -15 -45 -2 -8 -13 -42 -25
-75 -11 -33 -22 -67 -24 -75 -2 -8 -12 -35 -21 -60 -9 -25 -25 -67 -36 -95
-10 -27 -24 -63 -30 -80 -7 -16 -13 -33 -13 -37 -1 -3 -4 -10 -8 -14 -5 -4 -8
-14 -8 -21 0 -8 -9 -33 -20 -55 -11 -23 -20 -47 -20 -54 0 -7 -4 -15 -9 -18
-8 -5 -13 1362 -12 3377 0 229 -2 417 -4 417 -2 0 -301 -297 -664 -661 -633
-632 -661 -662 -662 -697 0 -20 0 -1081 0 -2357 l-1 -2320 -36 -45 c-20 -25
-39 -47 -42 -50 -3 -3 -18 -21 -34 -40 -143 -175 -529 -562 -726 -730 -29 -25
-58 -50 -64 -55 -6 -6 -33 -28 -61 -50 -27 -22 -52 -43 -55 -46 -3 -3 -54 -43
-115 -88 -60 -46 -118 -89 -127 -96 -9 -7 -52 -37 -95 -66 -43 -30 -79 -57
-81 -61 -2 -5 -10 -8 -17 -8 -8 0 -20 -6 -27 -13 -19 -19 -197 -127 -208 -127
-6 0 -10 -3 -10 -7 0 -5 -10 -13 -23 -19 -12 -6 -101 -51 -197 -101 -255 -129
-354 -172 -565 -242 -106 -35 -232 -70 -305 -85 -14 -3 -36 -7 -50 -10 -13 -3
-42 -8 -65 -11 -22 -3 -47 -8 -55 -10 -8 -2 -42 -7 -75 -10 -33 -4 -76 -8 -95
-10 -54 -6 -351 -6 -390 -1 -19 3 -57 8 -85 11 -27 4 -57 8 -65 10 -8 2 -35 7
-60 11 -39 5 -68 10 -77 13 -2 1 -6 2 -10 2 -5 1 -19 6 -33 11 -14 5 -34 12
-44 14 -37 7 -151 47 -161 55 -5 5 -15 9 -22 9 -14 0 -120 51 -208 100 -70 39
-169 107 -240 164 -62 50 -223 211 -261 263 -16 21 -39 49 -52 63 -12 14 -25
33 -28 43 -3 9 -10 17 -15 17 -5 0 -9 4 -9 9 0 4 -20 39 -45 76 -25 38 -48 78
-51 89 -4 12 -10 23 -13 26 -14 10 -129 263 -136 299 -2 9 -12 39 -23 66 -11
28 -20 52 -20 55 0 3 -3 12 -6 20 -15 44 -58 199 -62 225 -3 17 -8 37 -11 45
-3 8 -7 26 -9 40 -2 14 -6 36 -10 50 -6 27 -10 44 -18 103 -3 20 -8 52 -11 70
-3 17 -7 55 -11 82 -3 28 -7 64 -9 80 -22 190 -22 632 0 855 3 25 7 68 10 95
8 84 14 138 20 175 2 19 7 57 10 84 3 27 8 53 10 56 3 4 7 27 10 51 4 41 9 69
21 129 3 14 7 39 10 55 5 28 40 190 48 225 6 23 60 244 61 250 1 3 5 19 9 35
4 17 10 37 13 45 4 8 7 20 8 25 1 6 3 12 4 15 2 3 4 13 6 23 5 25 52 176 96
307 22 63 41 122 43 130 9 34 59 166 65 172 3 4 6 -29 6 -72 0 -44 -4 -80 -8
-80 -5 0 -5 -6 0 -12 11 -19 10 -358 -2 -358 -7 0 -7 -3 0 -8 12 -8 13 -141 2
-159 -5 -7 -4 -13 0 -13 11 0 10 -81 -1 -98 -4 -7 -4 -12 1 -12 10 0 10 -91
-1 -108 -4 -7 -4 -12 1 -12 4 0 8 -59 8 -130 0 -72 -4 -130 -8 -130 -4 0 -4
-8 0 -17 7 -16 9 -107 4 -208 -1 -16 0 -41 2 -55 2 -14 0 -33 -5 -42 -4 -9 -5
-19 0 -22 9 -5 7 -100 -2 -115 -4 -5 -2 -12 2 -15 8 -4 8 -59 2 -91 -1 -5 -1
-12 0 -15 1 -3 3 -41 5 -85 1 -44 5 -98 9 -120 20 -129 19 -122 30 -173 2 -9
11 -44 20 -77 9 -33 19 -68 21 -78 22 -97 186 -432 217 -445 4 -2 8 -9 8 -16
0 -7 9 -21 20 -31 11 -10 20 -22 20 -28 0 -5 8 -17 18 -26 9 -9 33 -36 53 -61
129 -159 332 -320 549 -432 143 -74 343 -148 358 -133 4 3 7 1202 8 2663 l1
2657 -81 83 c-45 46 -93 95 -108 109 l-27 26 27 36 c77 103 206 267 218 277 8
6 14 14 14 18 0 3 8 14 18 24 9 10 35 41 57 68 22 26 50 59 63 72 12 12 22 25
22 28 0 2 19 24 43 49 23 24 62 67 87 95 59 67 329 340 406 410 112 103 214
192 279 245 20 17 45 37 54 45 10 8 33 26 51 40 18 14 38 30 44 35 6 6 27 22
46 35 19 13 40 29 46 35 6 5 44 33 84 60 40 28 81 58 91 68 11 9 19 15 19 12
0 -5 13 4 45 33 7 6 16 12 20 12 4 0 25 13 48 28 160 108 549 320 620 337 15
4 27 11 27 15 0 4 10 10 23 13 12 3 56 19 97 37 41 17 134 51 205 75 112 38
151 49 235 71 87 22 228 51 295 60 28 3 59 8 70 10 11 2 72 7 135 10 63 3 116
7 118 9 3 3 107 -2 212 -10z"/>
<path d="M4765 7600 l1 -650 791 -791 792 -792 792 791 791 790 0 647 c0 355
-2 648 -4 650 -2 3 -359 -349 -792 -782 l-787 -786 -785 784 c-431 431 -787
785 -792 787 -4 1 -7 -290 -7 -648z"/>
</g>
</svg>
