<?xml version="1.0" encoding="UTF-8"?>
<svg id="a" data-name="Vrstva 1" xmlns="http://www.w3.org/2000/svg" viewBox="0 0 610.82 531.99">
  <defs>
    <style>
      .b {
        fill: #ccc;
      }
    </style>
  </defs>
  <path class="b" d="M610.82,326.99c-85.91-23.72-162.92-81.09-206.59-159.23-10.05-18.04-18.61-36.93-25.24-56.51-11.76-34.81-17.83-71.5-18.18-108.24,0-3.82,6.01-4.2,6.18-.02-.35,91.89-39.02,183.32-107.35,245.21-40.48,36.93-89.88,64.15-142.65,78.79,8.7-2.69,17.28-5.76,25.72-9.15,73.72-29.12,138.12-82.88,176.33-152.61,27.29-49.45,41.61-105.82,41.95-162.26,0,0,3,3.02,3,3.02,0,0-.18,0-.18,0l3-3.02c.38,151.47,100.33,279.56,244,324.02h0Z"/>
</svg>